<mxfile host="app.diagrams.net" modified="2021-03-29T22:15:58.848Z" agent="5.0 (Macintosh; Intel Mac OS X 11_2_3) AppleWebKit/537.36 (KHTML, like Gecko) Chrome/89.0.4389.90 Safari/537.36" etag="_XanwsOPzq7BbX-sWPPh" version="14.5.3" type="github" pages="2">
  <diagram id="C5RBs43oDa-KdzZeNtuy" name="ERD">
    <mxGraphModel dx="1183" dy="659" grid="1" gridSize="10" guides="1" tooltips="1" connect="1" arrows="1" fold="1" page="1" pageScale="1" pageWidth="827" pageHeight="1169" math="0" shadow="0">
      <root>
        <mxCell id="WIyWlLk6GJQsqaUBKTNV-0" />
        <mxCell id="WIyWlLk6GJQsqaUBKTNV-1" parent="WIyWlLk6GJQsqaUBKTNV-0" />
        <mxCell id="vSX-aoSxKt2Dpe6xgwAd-0" value="Client" style="rounded=1;whiteSpace=wrap;html=1;" parent="WIyWlLk6GJQsqaUBKTNV-1" vertex="1">
          <mxGeometry x="40" y="40" width="120" height="60" as="geometry" />
        </mxCell>
        <mxCell id="vSX-aoSxKt2Dpe6xgwAd-1" value="Repository" style="rounded=1;whiteSpace=wrap;html=1;" parent="WIyWlLk6GJQsqaUBKTNV-1" vertex="1">
          <mxGeometry x="40" y="404.5" width="120" height="60" as="geometry" />
        </mxCell>
        <mxCell id="vSX-aoSxKt2Dpe6xgwAd-2" value="GitUserClient" style="rounded=1;whiteSpace=wrap;html=1;" parent="WIyWlLk6GJQsqaUBKTNV-1" vertex="1">
          <mxGeometry x="40" y="160" width="120" height="60" as="geometry" />
        </mxCell>
        <mxCell id="vSX-aoSxKt2Dpe6xgwAd-3" value="GitUser" style="rounded=1;whiteSpace=wrap;html=1;" parent="WIyWlLk6GJQsqaUBKTNV-1" vertex="1">
          <mxGeometry x="40" y="284.5" width="120" height="60" as="geometry" />
        </mxCell>
        <mxCell id="vSX-aoSxKt2Dpe6xgwAd-6" value="" style="fontSize=12;html=1;endArrow=ERoneToMany;exitX=0.5;exitY=0;exitDx=0;exitDy=0;entryX=0.5;entryY=1;entryDx=0;entryDy=0;" parent="WIyWlLk6GJQsqaUBKTNV-1" source="vSX-aoSxKt2Dpe6xgwAd-3" target="vSX-aoSxKt2Dpe6xgwAd-2" edge="1">
          <mxGeometry width="100" height="100" relative="1" as="geometry">
            <mxPoint x="360" y="300" as="sourcePoint" />
            <mxPoint x="460" y="200" as="targetPoint" />
          </mxGeometry>
        </mxCell>
        <mxCell id="vSX-aoSxKt2Dpe6xgwAd-7" value="" style="fontSize=12;html=1;endArrow=ERoneToMany;exitX=0.5;exitY=1;exitDx=0;exitDy=0;entryX=0.5;entryY=0;entryDx=0;entryDy=0;" parent="WIyWlLk6GJQsqaUBKTNV-1" source="vSX-aoSxKt2Dpe6xgwAd-0" target="vSX-aoSxKt2Dpe6xgwAd-2" edge="1">
          <mxGeometry width="100" height="100" relative="1" as="geometry">
            <mxPoint x="360" y="300" as="sourcePoint" />
            <mxPoint x="460" y="200" as="targetPoint" />
          </mxGeometry>
        </mxCell>
        <mxCell id="vSX-aoSxKt2Dpe6xgwAd-8" value="" style="fontSize=12;html=1;endArrow=ERoneToMany;exitX=0.5;exitY=1;exitDx=0;exitDy=0;entryX=0.5;entryY=0;entryDx=0;entryDy=0;" parent="WIyWlLk6GJQsqaUBKTNV-1" source="vSX-aoSxKt2Dpe6xgwAd-3" target="vSX-aoSxKt2Dpe6xgwAd-1" edge="1">
          <mxGeometry width="100" height="100" relative="1" as="geometry">
            <mxPoint x="360" y="300" as="sourcePoint" />
            <mxPoint x="460" y="200" as="targetPoint" />
          </mxGeometry>
        </mxCell>
        <mxCell id="vSX-aoSxKt2Dpe6xgwAd-22" value="Client" style="swimlane;childLayout=stackLayout;horizontal=1;startSize=30;horizontalStack=0;rounded=1;fontSize=14;fontStyle=0;strokeWidth=2;resizeParent=0;resizeLast=1;shadow=0;dashed=0;align=center;" parent="WIyWlLk6GJQsqaUBKTNV-1" vertex="1">
          <mxGeometry x="180" y="40" width="260" height="150" as="geometry" />
        </mxCell>
        <mxCell id="vSX-aoSxKt2Dpe6xgwAd-23" value="has_many :git_user_clients&#xa;has_many git_users, through: :git_user_clients&#xa;&#xa;t.string :first_name&#xa;t.string :last_name&#xa;t.string :location&#xa;t.string :username&#xa;&#xa;" style="align=left;strokeColor=none;fillColor=none;spacingLeft=4;fontSize=12;verticalAlign=top;resizable=0;rotatable=0;part=1;" parent="vSX-aoSxKt2Dpe6xgwAd-22" vertex="1">
          <mxGeometry y="30" width="260" height="120" as="geometry" />
        </mxCell>
        <mxCell id="vSX-aoSxKt2Dpe6xgwAd-24" value="Repository" style="swimlane;childLayout=stackLayout;horizontal=1;startSize=30;horizontalStack=0;rounded=1;fontSize=14;fontStyle=0;strokeWidth=2;resizeParent=0;resizeLast=1;shadow=0;dashed=0;align=center;" parent="WIyWlLk6GJQsqaUBKTNV-1" vertex="1">
          <mxGeometry x="450" y="210" width="300" height="240" as="geometry" />
        </mxCell>
        <mxCell id="vSX-aoSxKt2Dpe6xgwAd-30" style="edgeStyle=none;rounded=0;orthogonalLoop=1;jettySize=auto;html=1;" parent="vSX-aoSxKt2Dpe6xgwAd-24" source="vSX-aoSxKt2Dpe6xgwAd-25" target="vSX-aoSxKt2Dpe6xgwAd-24" edge="1">
          <mxGeometry relative="1" as="geometry" />
        </mxCell>
        <mxCell id="vSX-aoSxKt2Dpe6xgwAd-25" value="belongs_to :git_user&#xa;&#xa;t.integer :repo_id&#xa;t.string :description&#xa;t.string :html_url&#xa;t.string :language&#xa;t.integer :size&#xa;t.integer :forks_count&#xa;t.integer :commits&#xa;t.datetime :last_commit_date&#xa;t.integer :watchers&#xa;---Following this repo to get notification on any activity&#xa;t.integer :stargazers_count &#xa;---People who have starred a repo &#xa;" style="align=left;strokeColor=none;fillColor=none;spacingLeft=4;fontSize=12;verticalAlign=top;resizable=0;rotatable=0;part=1;" parent="vSX-aoSxKt2Dpe6xgwAd-24" vertex="1">
          <mxGeometry y="30" width="300" height="210" as="geometry" />
        </mxCell>
        <mxCell id="vSX-aoSxKt2Dpe6xgwAd-26" value="GitUserClient" style="swimlane;childLayout=stackLayout;horizontal=1;startSize=30;horizontalStack=0;rounded=1;fontSize=14;fontStyle=0;strokeWidth=2;resizeParent=0;resizeLast=1;shadow=0;dashed=0;align=center;" parent="WIyWlLk6GJQsqaUBKTNV-1" vertex="1">
          <mxGeometry x="450" y="40" width="150" height="120" as="geometry" />
        </mxCell>
        <mxCell id="vSX-aoSxKt2Dpe6xgwAd-27" value="belongs_to :client&#xa;belongs_to :git_user&#xa;&#xa;t.integer :client_id&#xa;t.integer :git_user_id&#xa;" style="align=left;strokeColor=none;fillColor=none;spacingLeft=4;fontSize=12;verticalAlign=top;resizable=0;rotatable=0;part=1;" parent="vSX-aoSxKt2Dpe6xgwAd-26" vertex="1">
          <mxGeometry y="30" width="150" height="90" as="geometry" />
        </mxCell>
        <mxCell id="vSX-aoSxKt2Dpe6xgwAd-28" value="GitUser" style="swimlane;childLayout=stackLayout;horizontal=1;startSize=30;horizontalStack=0;rounded=1;fontSize=14;fontStyle=0;strokeWidth=2;resizeParent=0;resizeLast=1;shadow=0;dashed=0;align=center;" parent="WIyWlLk6GJQsqaUBKTNV-1" vertex="1">
          <mxGeometry x="180" y="210" width="260" height="250" as="geometry" />
        </mxCell>
        <mxCell id="vSX-aoSxKt2Dpe6xgwAd-29" value="has_many :git_user_clients&#xa;has_many :clients, through: :git_user_clients&#xa;has_many :repositories&#xa;&#xa;t.integer :github_id&#xa;t.string :login&#xa;t.string :name&#xa;t.string :avatar_url&#xa;t.string :bio&#xa;t.string :location&#xa;t.boolean :site_admin&#xa;t.boolean :hireable&#xa;t.integer :public_repos&#xa;t.integer :followers&#xa;t.integer :following&#xa;" style="align=left;strokeColor=none;fillColor=none;spacingLeft=4;fontSize=12;verticalAlign=top;resizable=0;rotatable=0;part=1;" parent="vSX-aoSxKt2Dpe6xgwAd-28" vertex="1">
          <mxGeometry y="30" width="260" height="220" as="geometry" />
        </mxCell>
      </root>
    </mxGraphModel>
  </diagram>
  <diagram id="0ztGgeGAykb83x7JAqp4" name="Client Journey">
    <mxGraphModel dx="650" dy="330" grid="1" gridSize="10" guides="1" tooltips="1" connect="1" arrows="1" fold="1" page="1" pageScale="1" pageWidth="850" pageHeight="1100" math="0" shadow="0">
      <root>
        <mxCell id="xDp0b4BGA6Ov0UW5L-Kh-0" />
        <mxCell id="xDp0b4BGA6Ov0UW5L-Kh-1" parent="xDp0b4BGA6Ov0UW5L-Kh-0" />
        <mxCell id="E3nOa6xQjA5b2vduQ32O-0" value="Search" style="rounded=1;whiteSpace=wrap;html=1;" parent="xDp0b4BGA6Ov0UW5L-Kh-1" vertex="1">
          <mxGeometry x="545" y="50" width="90" height="60" as="geometry" />
        </mxCell>
        <mxCell id="E3nOa6xQjA5b2vduQ32O-1" value="Log in / Sign up" style="rounded=1;whiteSpace=wrap;html=1;" parent="xDp0b4BGA6Ov0UW5L-Kh-1" vertex="1">
          <mxGeometry x="40" y="50" width="120" height="60" as="geometry" />
        </mxCell>
        <mxCell id="E3nOa6xQjA5b2vduQ32O-2" value="Favorite" style="rounded=1;whiteSpace=wrap;html=1;" parent="xDp0b4BGA6Ov0UW5L-Kh-1" vertex="1">
          <mxGeometry x="400" y="170" width="80" height="60" as="geometry" />
        </mxCell>
        <mxCell id="E3nOa6xQjA5b2vduQ32O-3" value="Main Page&lt;br&gt;- Search&lt;br&gt;- Favorite&amp;nbsp;" style="rounded=1;whiteSpace=wrap;html=1;" parent="xDp0b4BGA6Ov0UW5L-Kh-1" vertex="1">
          <mxGeometry x="250" y="20" width="120" height="120" as="geometry" />
        </mxCell>
        <mxCell id="E3nOa6xQjA5b2vduQ32O-4" value="" style="endArrow=classic;html=1;exitX=1;exitY=0.5;exitDx=0;exitDy=0;entryX=0;entryY=0.5;entryDx=0;entryDy=0;" parent="xDp0b4BGA6Ov0UW5L-Kh-1" source="E3nOa6xQjA5b2vduQ32O-1" target="E3nOa6xQjA5b2vduQ32O-3" edge="1">
          <mxGeometry width="50" height="50" relative="1" as="geometry">
            <mxPoint x="170" y="110" as="sourcePoint" />
            <mxPoint x="220" y="60" as="targetPoint" />
          </mxGeometry>
        </mxCell>
        <mxCell id="E3nOa6xQjA5b2vduQ32O-5" value="sign up" style="text;html=1;strokeColor=none;fillColor=none;align=center;verticalAlign=middle;whiteSpace=wrap;rounded=0;" parent="xDp0b4BGA6Ov0UW5L-Kh-1" vertex="1">
          <mxGeometry x="110" y="140" width="40" height="20" as="geometry" />
        </mxCell>
        <mxCell id="E3nOa6xQjA5b2vduQ32O-6" value="logged in" style="text;html=1;strokeColor=none;fillColor=none;align=center;verticalAlign=middle;whiteSpace=wrap;rounded=0;" parent="xDp0b4BGA6Ov0UW5L-Kh-1" vertex="1">
          <mxGeometry x="180" y="40" width="40" height="20" as="geometry" />
        </mxCell>
        <mxCell id="E3nOa6xQjA5b2vduQ32O-7" value="Sign Up&lt;br&gt;Create account:&lt;br&gt;-name&lt;br&gt;-location&lt;br&gt;-username&lt;br&gt;-password" style="rounded=1;whiteSpace=wrap;html=1;" parent="xDp0b4BGA6Ov0UW5L-Kh-1" vertex="1">
          <mxGeometry x="40" y="200" width="120" height="100" as="geometry" />
        </mxCell>
        <mxCell id="E3nOa6xQjA5b2vduQ32O-8" value="" style="endArrow=classic;html=1;entryX=0.5;entryY=0;entryDx=0;entryDy=0;" parent="xDp0b4BGA6Ov0UW5L-Kh-1" target="E3nOa6xQjA5b2vduQ32O-7" edge="1">
          <mxGeometry width="50" height="50" relative="1" as="geometry">
            <mxPoint x="100" y="112" as="sourcePoint" />
            <mxPoint x="100" y="190" as="targetPoint" />
          </mxGeometry>
        </mxCell>
        <mxCell id="E3nOa6xQjA5b2vduQ32O-9" value="" style="endArrow=classic;html=1;exitX=1;exitY=0.5;exitDx=0;exitDy=0;entryX=0;entryY=0.5;entryDx=0;entryDy=0;" parent="xDp0b4BGA6Ov0UW5L-Kh-1" source="E3nOa6xQjA5b2vduQ32O-3" target="E3nOa6xQjA5b2vduQ32O-0" edge="1">
          <mxGeometry width="50" height="50" relative="1" as="geometry">
            <mxPoint x="380" y="100" as="sourcePoint" />
            <mxPoint x="430" y="50" as="targetPoint" />
          </mxGeometry>
        </mxCell>
        <mxCell id="E3nOa6xQjA5b2vduQ32O-10" value="" style="endArrow=classic;html=1;exitX=1;exitY=0.5;exitDx=0;exitDy=0;entryX=0.5;entryY=0;entryDx=0;entryDy=0;" parent="xDp0b4BGA6Ov0UW5L-Kh-1" source="E3nOa6xQjA5b2vduQ32O-3" target="E3nOa6xQjA5b2vduQ32O-2" edge="1">
          <mxGeometry width="50" height="50" relative="1" as="geometry">
            <mxPoint x="390" y="160" as="sourcePoint" />
            <mxPoint x="440" y="110" as="targetPoint" />
          </mxGeometry>
        </mxCell>
        <mxCell id="E3nOa6xQjA5b2vduQ32O-11" value="" style="endArrow=classic;html=1;exitX=1;exitY=0.5;exitDx=0;exitDy=0;" parent="xDp0b4BGA6Ov0UW5L-Kh-1" source="E3nOa6xQjA5b2vduQ32O-7" edge="1">
          <mxGeometry width="50" height="50" relative="1" as="geometry">
            <mxPoint x="170" y="270" as="sourcePoint" />
            <mxPoint x="310" y="143" as="targetPoint" />
            <Array as="points">
              <mxPoint x="310" y="250" />
            </Array>
          </mxGeometry>
        </mxCell>
        <mxCell id="E3nOa6xQjA5b2vduQ32O-12" value="List of GitHub Users" style="rounded=1;whiteSpace=wrap;html=1;" parent="xDp0b4BGA6Ov0UW5L-Kh-1" vertex="1">
          <mxGeometry x="530" y="170" width="120" height="60" as="geometry" />
        </mxCell>
        <mxCell id="E3nOa6xQjA5b2vduQ32O-13" value="GitHubUser" style="rounded=1;whiteSpace=wrap;html=1;" parent="xDp0b4BGA6Ov0UW5L-Kh-1" vertex="1">
          <mxGeometry x="710" y="170" width="90" height="60" as="geometry" />
        </mxCell>
        <mxCell id="E3nOa6xQjA5b2vduQ32O-14" value="" style="endArrow=classic;html=1;entryX=0;entryY=0.5;entryDx=0;entryDy=0;exitX=1;exitY=0.5;exitDx=0;exitDy=0;" parent="xDp0b4BGA6Ov0UW5L-Kh-1" source="E3nOa6xQjA5b2vduQ32O-2" target="E3nOa6xQjA5b2vduQ32O-12" edge="1">
          <mxGeometry width="50" height="50" relative="1" as="geometry">
            <mxPoint x="460" y="232" as="sourcePoint" />
            <mxPoint x="440" y="240" as="targetPoint" />
          </mxGeometry>
        </mxCell>
        <mxCell id="E3nOa6xQjA5b2vduQ32O-15" value="" style="endArrow=classic;html=1;" parent="xDp0b4BGA6Ov0UW5L-Kh-1" edge="1">
          <mxGeometry width="50" height="50" relative="1" as="geometry">
            <mxPoint x="650" y="199" as="sourcePoint" />
            <mxPoint x="710.7106781186548" y="199" as="targetPoint" />
          </mxGeometry>
        </mxCell>
        <mxCell id="E3nOa6xQjA5b2vduQ32O-16" value="Repositories" style="rounded=1;whiteSpace=wrap;html=1;" parent="xDp0b4BGA6Ov0UW5L-Kh-1" vertex="1">
          <mxGeometry x="630" y="320" width="120" height="60" as="geometry" />
        </mxCell>
        <mxCell id="E3nOa6xQjA5b2vduQ32O-17" value="" style="endArrow=classic;html=1;entryX=0.5;entryY=0;entryDx=0;entryDy=0;exitX=0.5;exitY=1;exitDx=0;exitDy=0;" parent="xDp0b4BGA6Ov0UW5L-Kh-1" source="E3nOa6xQjA5b2vduQ32O-13" target="E3nOa6xQjA5b2vduQ32O-16" edge="1">
          <mxGeometry width="50" height="50" relative="1" as="geometry">
            <mxPoint x="750" y="240" as="sourcePoint" />
            <mxPoint x="620" y="330" as="targetPoint" />
          </mxGeometry>
        </mxCell>
        <mxCell id="E3nOa6xQjA5b2vduQ32O-18" value="GitHub page" style="rounded=1;whiteSpace=wrap;html=1;" parent="xDp0b4BGA6Ov0UW5L-Kh-1" vertex="1">
          <mxGeometry x="790" y="320" width="110" height="60" as="geometry" />
        </mxCell>
        <mxCell id="E3nOa6xQjA5b2vduQ32O-19" value="" style="endArrow=classic;html=1;exitX=1;exitY=0.5;exitDx=0;exitDy=0;entryX=0;entryY=0.5;entryDx=0;entryDy=0;" parent="xDp0b4BGA6Ov0UW5L-Kh-1" source="E3nOa6xQjA5b2vduQ32O-16" target="E3nOa6xQjA5b2vduQ32O-18" edge="1">
          <mxGeometry width="50" height="50" relative="1" as="geometry">
            <mxPoint x="750" y="390" as="sourcePoint" />
            <mxPoint x="800" y="340" as="targetPoint" />
          </mxGeometry>
        </mxCell>
        <mxCell id="E3nOa6xQjA5b2vduQ32O-20" value="" style="endArrow=classic;html=1;exitX=0.5;exitY=1;exitDx=0;exitDy=0;entryX=0.5;entryY=0;entryDx=0;entryDy=0;" parent="xDp0b4BGA6Ov0UW5L-Kh-1" source="E3nOa6xQjA5b2vduQ32O-0" target="E3nOa6xQjA5b2vduQ32O-12" edge="1">
          <mxGeometry width="50" height="50" relative="1" as="geometry">
            <mxPoint x="570" y="150" as="sourcePoint" />
            <mxPoint x="620" y="100" as="targetPoint" />
          </mxGeometry>
        </mxCell>
        <mxCell id="E3nOa6xQjA5b2vduQ32O-21" value="Criterias:&lt;br&gt;- location&lt;br&gt;- recent commit&lt;br&gt;- repositories&lt;br&gt;- forks&lt;br&gt;- followers" style="text;html=1;strokeColor=none;fillColor=none;align=center;verticalAlign=middle;whiteSpace=wrap;rounded=0;" parent="xDp0b4BGA6Ov0UW5L-Kh-1" vertex="1">
          <mxGeometry x="640" y="30" width="100" height="90" as="geometry" />
        </mxCell>
      </root>
    </mxGraphModel>
  </diagram>
</mxfile>
